<?xml version="1.0" standalone="no"?>
<!DOCTYPE svg PUBLIC "-//W3C//DTD SVG 20010904//EN"
 "http://www.w3.org/TR/2001/REC-SVG-20010904/DTD/svg10.dtd">
<svg version="1.0" xmlns="http://www.w3.org/2000/svg"
 width="500.000000pt" height="500.000000pt" viewBox="0 0 500.000000 500.000000"
 preserveAspectRatio="xMidYMid meet">
<metadata>
Created by potrace 1.11, written by Peter Selinger 2001-2013
</metadata>
<g transform="translate(0.000000,500.000000) scale(0.100000,-0.100000)"
fill="#000000" stroke="none">
<path d="M2327 4804 c-52 -13 -83 -32 -96 -59 -6 -11 -105 -281 -221 -600
-116 -319 -217 -596 -225 -615 -8 -19 -50 -134 -93 -255 -44 -121 -135 -371
-202 -555 -68 -184 -140 -382 -160 -440 -21 -58 -59 -161 -85 -230 -26 -69
-48 -129 -49 -135 -2 -5 -6 -17 -9 -25 -4 -8 -50 -134 -103 -280 -114 -315
-161 -442 -207 -570 -174 -477 -260 -715 -262 -729 -4 -30 17 -59 58 -77 59
-27 255 -27 310 0 47 23 49 28 132 256 37 102 101 277 142 390 41 113 90 246
108 295 18 50 72 198 120 330 48 132 96 263 106 290 10 28 99 273 199 545 100
272 182 500 184 505 3 13 36 105 47 130 8 20 97 260 103 280 2 6 6 17 9 25 8
21 66 182 207 570 67 184 125 344 130 355 36 83 180 500 180 519 0 32 -34 64
-82 77 -53 14 -191 16 -241 3z"/>
<path d="M4065 4810 c-69 -6 -116 -28 -132 -62 -7 -12 -26 -59 -42 -103 -34
-90 -253 -690 -283 -775 -30 -85 -177 -487 -205 -560 -13 -36 -30 -83 -38
-105 -16 -49 -46 -132 -209 -575 -70 -190 -129 -352 -131 -360 -2 -8 -74 -206
-160 -440 -86 -234 -163 -445 -171 -468 -9 -24 -51 -141 -96 -260 -44 -120
-81 -221 -82 -227 -2 -5 -6 -17 -9 -25 -28 -69 -181 -493 -188 -523 -12 -48
-1 -69 48 -93 31 -15 61 -19 158 -19 147 0 188 15 216 79 9 23 92 248 184 501
92 253 176 483 187 510 11 28 21 57 23 65 2 8 34 96 70 195 66 178 237 646
300 820 278 767 357 984 366 1005 6 14 24 63 41 110 16 47 33 94 38 105 5 11
84 227 176 480 92 253 178 489 192 525 36 97 39 133 11 159 -39 37 -138 52
-264 41z"/>
</g>
</svg>
