<svg id="Layer_1" data-name="Layer 1" xmlns="http://www.w3.org/2000/svg" viewBox="0 0 608 139.855"><defs><style>.cls-1{fill:#fff;}</style></defs><title>bnjmn_logo2_white</title><path class="cls-1" d="M36.8,5.773A2.84,2.84,0,0,1,39.405,3.89h10.43a2.629,2.629,0,0,1,2.607,3.621L15.929,134.083a3,3,0,0,1-2.607,1.883H2.746a2.681,2.681,0,0,1-2.607-3.622Z"/><path class="cls-1" d="M87.937,5.773A2.84,2.84,0,0,1,90.545,3.89h10.43a2.629,2.629,0,0,1,2.607,3.621L67.07,134.083a3,3,0,0,1-2.608,1.883H53.887a2.682,2.682,0,0,1-2.608-3.622Z"/><path class="cls-1" d="M130.771,27.781a2.75,2.75,0,0,1,2.751-2.752H166.7c17.239,0,30.566,11.589,30.566,26.8,0,11.155-9.127,19.846-15.935,23.034,7.677,2.462,18.832,10.285,18.832,23.612,0,16.225-13.907,27.959-31.58,27.959H133.522a2.75,2.75,0,0,1-2.751-2.753Zm34.187,39.838c7.388,0,12.458-5.794,12.458-13.038s-5.07-12.313-12.458-12.313h-15.5V67.619Zm2.028,41.721a12.926,12.926,0,0,0,13.038-13.183c0-7.243-7.243-12.6-14.776-12.6H149.457V109.34Z"/><path class="cls-1" d="M220.156,24.74a2.607,2.607,0,0,1,2.608-2.608H225.6a2.148,2.148,0,0,1,1.565.676l59.627,63.353h.145V26.333a2.751,2.751,0,0,1,2.753-2.753h13.327a2.76,2.76,0,0,1,2.752,2.753v97.493a2.607,2.607,0,0,1-2.607,2.608h-2.8a1.855,1.855,0,0,1-1.371-.606l-60-65.887h-.144v62.292a2.751,2.751,0,0,1-2.752,2.752H222.908a2.76,2.76,0,0,1-2.752-2.752Z"/><path class="cls-1" d="M403.274,24.305a2.443,2.443,0,0,1,2.607-2.173H408.2a2.642,2.642,0,0,1,2.463,1.448l31.871,68.377h.434l31.87-68.377a2.5,2.5,0,0,1,2.463-1.448h2.318a2.443,2.443,0,0,1,2.607,2.173l17.1,97.349a2.516,2.516,0,0,1-2.608,3.331H483.528a3.141,3.141,0,0,1-2.752-2.173l-8.547-54.9h-.435L446.443,124.84a2.464,2.464,0,0,1-2.463,1.594h-2.607a2.6,2.6,0,0,1-2.463-1.594L413.269,67.909h-.435l-8.4,54.9a2.8,2.8,0,0,1-2.607,2.173H388.787a2.654,2.654,0,0,1-2.753-3.331Z"/><path class="cls-1" d="M519.169,24.74a2.608,2.608,0,0,1,2.608-2.608H523.9a3.807,3.807,0,0,1,2.773,1.2l59.136,62.831h.143V26.333A2.752,2.752,0,0,1,588.7,23.58h13.329a2.759,2.759,0,0,1,2.751,2.751v97.495a2.608,2.608,0,0,1-2.608,2.608h-1.158a5.572,5.572,0,0,1-4.121-1.821L538,59.941h-.145v62.292a2.75,2.75,0,0,1-2.753,2.752H521.922a2.76,2.76,0,0,1-2.753-2.752Z"/><path class="cls-1" d="M372.937,26.328V94.717c0,20.129-13.477,31.716-30.425,31.716a27.845,27.845,0,0,1-22.018-10.565,3.069,3.069,0,0,1,.289-3.625l7.539-7.674c1.6-1.465,3.046-1.176,4.338.135,1.889,2.025,4.782,4.627,9.563,4.627,5.649,0,11.588-4.627,11.588-14.614V41.367H332.7c-1.87,0-3.586-1.157-3.586-2.757V26.328c0-1.581,1.716-2.757,3.586-2.757H370.18A2.755,2.755,0,0,1,372.937,26.328Z"/></svg>