<?xml version="1.0" encoding="utf-8"?>
<!-- Generator: Adobe Illustrator 23.0.1, SVG Export Plug-In . SVG Version: 6.00 Build 0)  -->
<svg version="1.1" id="Layer_1" xmlns="http://www.w3.org/2000/svg" xmlns:xlink="http://www.w3.org/1999/xlink" x="0px" y="0px"
	 viewBox="0 0 608.6 141.5" style="enable-background:new 0 0 608.6 141.5;" xml:space="preserve">
<g>
	<path d="M13.4,138.3c-0.2,0.7-0.5,1.3-0.8,1.7c-0.4,0.4-0.8,0.7-1.3,0.9c-0.5,0.2-1.2,0.4-2,0.5c-0.8,0.1-1.7,0.2-2.9,0.2
		c-1.3,0-2.5-0.1-3.4-0.3c-0.9-0.2-1.6-0.5-2.1-0.8c-0.5-0.4-0.8-0.8-0.9-1.3c-0.1-0.5,0-1.1,0.3-1.8L49.3,3.2
		c0.2-0.7,0.5-1.3,0.8-1.7c0.4-0.4,0.8-0.7,1.3-1c0.5-0.2,1.2-0.4,2-0.5S55.2,0,56.3,0c1.3,0,2.5,0.1,3.3,0.3c0.9,0.2,1.5,0.4,2,0.8
		c0.5,0.3,0.8,0.8,0.9,1.3c0.1,0.5,0,1.2-0.2,1.9L13.4,138.3z"/>
	<path d="M65.7,138.3c-0.2,0.7-0.5,1.3-0.8,1.7c-0.4,0.4-0.8,0.7-1.3,0.9c-0.5,0.2-1.2,0.4-2,0.5c-0.8,0.1-1.7,0.2-2.9,0.2
		c-1.3,0-2.5-0.1-3.4-0.3c-0.9-0.2-1.6-0.5-2.1-0.8c-0.5-0.4-0.8-0.8-0.9-1.3c-0.1-0.5,0-1.1,0.3-1.8L101.5,3.2
		c0.2-0.7,0.5-1.3,0.8-1.7c0.4-0.4,0.8-0.7,1.3-1c0.5-0.2,1.2-0.4,2-0.5c0.8-0.1,1.8-0.1,2.9-0.1c1.3,0,2.5,0.1,3.3,0.3
		c0.9,0.2,1.5,0.4,2,0.8s0.8,0.8,0.9,1.3c0.1,0.5,0,1.2-0.2,1.9L65.7,138.3z"/>
	<g>
		<path d="M371.3,22c2.2,0,4,1.8,4,4v71.2c0,15-2.4,31.5-22.5,31.5c-17.5,0-26.5-11.1-27.4-13.5c-0.7-1.9,1.3-7.9,5.1-9.4
			c3.4-1.3,9.3,9.7,20.9,9.7c8.3,0,10.2-6.8,10.2-18.1c0-5.1-0.4-64.1-0.4-64.1l-24.5,0.2c-1,0-1.9-0.8-1.9-1.9v-7.8
			c0-1,0.8-1.9,1.9-1.9H371.3z"/>
		<path d="M203.8,97.2c0,3.3-0.4,6.3-1.3,9.1c-0.8,2.8-2,5.3-3.5,7.5c-1.5,2.2-3.3,4.2-5.5,5.8c-2.1,1.7-4.5,3.1-7.2,4.2
			c-2.7,1.1-5.5,2-8.6,2.5c-3,0.6-6.5,0.8-10.5,0.8H140c-1.2,0-2.4-0.4-3.5-1.3c-1.1-0.8-1.7-2.3-1.7-4.4V28.3
			c0-2.1,0.6-3.6,1.7-4.4c1.1-0.8,2.3-1.3,3.5-1.3h23.8c6.3,0,11.4,0.6,15.4,1.8c4,1.2,7.3,2.9,10,5.2c2.7,2.3,4.7,5,6,8.3
			c1.3,3.3,2,7,2,11.2c0,2.5-0.3,4.8-0.9,7.1c-0.6,2.3-1.5,4.4-2.6,6.3c-1.2,1.9-2.6,3.6-4.4,5.1c-1.8,1.5-3.8,2.7-6,3.7
			c2.9,0.5,5.5,1.5,8,3c2.5,1.4,4.6,3.2,6.5,5.5c1.9,2.2,3.3,4.8,4.4,7.8C203.3,90.4,203.8,93.7,203.8,97.2z M182.9,50.4
			c0-2.5-0.4-4.8-1-6.9c-0.7-2-1.8-3.8-3.3-5.2c-1.5-1.4-3.5-2.5-5.9-3.3c-2.4-0.8-5.6-1.1-9.6-1.1h-14.4v33.9h15.8
			c3.6,0,6.5-0.5,8.7-1.4c2.2-0.9,4-2.2,5.5-3.8c1.5-1.6,2.5-3.4,3.2-5.6C182.5,54.9,182.9,52.7,182.9,50.4z M189.2,98
			c0-3.1-0.5-5.9-1.5-8.2c-1-2.4-2.4-4.4-4.4-6c-1.9-1.6-4.3-2.8-7.2-3.7c-2.9-0.8-6.5-1.3-10.8-1.3h-16.6v36.9h20.2
			c3.2,0,5.9-0.4,8.3-1.1c2.4-0.8,4.5-1.9,6.3-3.4c1.8-1.5,3.2-3.3,4.2-5.5C188.7,103.5,189.2,101,189.2,98z"/>
		<path d="M303.9,121.5c0,1.1-0.2,2-0.5,2.7c-0.4,0.8-0.8,1.4-1.4,1.9c-0.6,0.5-1.2,0.8-2,1.1c-0.7,0.2-1.4,0.3-2.2,0.3h-4.6
			c-1.4,0-2.7-0.1-3.8-0.4s-2.1-0.8-3.1-1.6c-1-0.8-2-1.8-2.9-3.2c-1-1.3-2-3.1-3.1-5.2l-31.9-59.5c-1.7-3.1-3.3-6.3-5-9.7
			c-1.7-3.4-3.3-6.6-4.7-9.8h-0.2c0.1,3.9,0.2,7.8,0.2,11.9c0.1,4,0.1,8.1,0.1,12v63.1c0,0.4-0.1,0.7-0.3,1.1
			c-0.2,0.4-0.6,0.6-1.2,0.8c-0.5,0.2-1.3,0.4-2.1,0.5c-0.9,0.1-2,0.2-3.4,0.2c-1.4,0-2.5-0.1-3.4-0.2c-0.9-0.1-1.6-0.3-2.1-0.5
			c-0.5-0.2-0.9-0.5-1.1-0.8c-0.2-0.4-0.3-0.7-0.3-1.1V28.6c0-2.2,0.6-3.7,1.8-4.6c1.2-0.9,2.6-1.4,4-1.4h6.8c1.6,0,3,0.1,4,0.4
			c1.1,0.3,2.1,0.7,2.9,1.3c0.9,0.6,1.7,1.5,2.5,2.6c0.8,1.1,1.7,2.5,2.5,4.2L274.1,77c1.5,2.8,3,5.5,4.4,8.2
			c1.4,2.7,2.8,5.3,4.1,7.9c1.3,2.6,2.6,5.1,3.9,7.6c1.3,2.5,2.5,5,3.8,7.6h0.1c-0.1-4.3-0.2-8.7-0.2-13.3c0-4.6,0-9,0-13.3V25
			c0-0.4,0.1-0.7,0.3-1.1c0.2-0.3,0.6-0.6,1.2-0.8c0.5-0.2,1.3-0.4,2.1-0.5c0.9-0.1,2-0.2,3.5-0.2c1.2,0,2.3,0.1,3.2,0.2
			c0.9,0.1,1.6,0.3,2.1,0.5c0.5,0.2,0.9,0.5,1.1,0.8c0.2,0.3,0.3,0.7,0.3,1.1V121.5z"/>
		<path d="M509.5,125.1c0,0.4-0.1,0.8-0.3,1.1c-0.2,0.3-0.6,0.6-1.2,0.8c-0.6,0.2-1.3,0.4-2.1,0.5c-0.9,0.1-2,0.2-3.4,0.2
			c-1.3,0-2.4-0.1-3.3-0.2c-0.9-0.1-1.6-0.3-2.2-0.5c-0.5-0.2-0.9-0.4-1.1-0.8c-0.2-0.3-0.3-0.7-0.3-1.1v-89h-0.2l-36.9,73.1
			c-0.2,0.4-0.4,0.7-0.7,1c-0.3,0.3-0.7,0.5-1.3,0.7c-0.6,0.2-1.2,0.3-2,0.4c-0.8,0.1-1.7,0.1-2.8,0.1c-1.1,0-2.1-0.1-2.9-0.2
			c-0.8-0.1-1.5-0.3-2-0.4s-1-0.4-1.3-0.7c-0.3-0.3-0.5-0.6-0.6-0.9l-35.2-73.1h-0.1v89c0,0.4-0.1,0.8-0.3,1.1
			c-0.2,0.3-0.6,0.6-1.2,0.8c-0.6,0.2-1.3,0.4-2.2,0.5c-0.9,0.1-2,0.2-3.4,0.2c-1.3,0-2.4-0.1-3.3-0.2c-0.9-0.1-1.6-0.3-2.1-0.5
			c-0.5-0.2-0.9-0.4-1.1-0.8c-0.2-0.3-0.3-0.7-0.3-1.1V28.9c0-2.3,0.6-3.9,1.8-4.8c1.2-1,2.5-1.5,4-1.5h8.5c1.7,0,3.3,0.2,4.6,0.5
			c1.3,0.3,2.5,0.8,3.4,1.5c1,0.7,1.8,1.6,2.5,2.7c0.7,1.1,31.6,65.7,31.6,65.7h0.4c0,0,32.4-64.7,33.1-65.8c0.7-1.1,1.5-2,2.3-2.7
			c0.8-0.7,1.8-1.2,2.8-1.5c1-0.3,2.2-0.4,3.6-0.4h8.9c0.8,0,1.6,0.1,2.3,0.4c0.7,0.2,1.4,0.6,1.9,1.1c0.5,0.5,0.9,1.2,1.3,1.9
			c0.3,0.8,0.5,1.7,0.5,2.9V125.1z"/>
		<path d="M608.6,121.5c0,1.1-0.2,2-0.5,2.7c-0.4,0.8-0.8,1.4-1.4,1.9c-0.6,0.5-1.2,0.8-2,1.1c-0.7,0.2-1.4,0.3-2.2,0.3h-4.6
			c-1.5,0-2.7-0.1-3.8-0.4c-1.1-0.3-2.1-0.8-3.1-1.6c-1-0.8-2-1.8-2.9-3.2c-1-1.3-2-3.1-3.1-5.2l-31.9-59.5c-1.7-3.1-3.3-6.3-5-9.7
			c-1.7-3.4-3.3-6.6-4.7-9.8h-0.2c0.1,3.9,0.2,7.8,0.2,11.9c0.1,4,0.1,8.1,0.1,12v63.1c0,0.4-0.1,0.7-0.3,1.1
			c-0.2,0.4-0.6,0.6-1.2,0.8c-0.5,0.2-1.3,0.4-2.1,0.5c-0.9,0.1-2,0.2-3.4,0.2c-1.4,0-2.5-0.1-3.4-0.2c-0.9-0.1-1.6-0.3-2.1-0.5
			c-0.5-0.2-0.9-0.5-1.1-0.8c-0.2-0.4-0.3-0.7-0.3-1.1V28.6c0-2.2,0.6-3.7,1.8-4.6c1.2-0.9,2.6-1.4,4-1.4h6.8c1.6,0,3,0.1,4,0.4
			c1.1,0.3,2.1,0.7,2.9,1.3c0.9,0.6,1.7,1.5,2.5,2.6c0.8,1.1,1.7,2.5,2.5,4.2L578.8,77c1.5,2.8,3,5.5,4.4,8.2
			c1.4,2.7,2.8,5.3,4.1,7.9c1.3,2.6,2.6,5.1,3.9,7.6c1.3,2.5,2.5,5,3.8,7.6h0.1c-0.1-4.3-0.2-8.7-0.2-13.3c0-4.6,0-9,0-13.3V25
			c0-0.4,0.1-0.7,0.3-1.1c0.2-0.3,0.6-0.6,1.2-0.8c0.5-0.2,1.3-0.4,2.1-0.5c0.9-0.1,2-0.2,3.5-0.2c1.3,0,2.3,0.1,3.2,0.2
			c0.9,0.1,1.6,0.3,2.1,0.5s0.9,0.5,1.1,0.8c0.2,0.3,0.3,0.7,0.3,1.1V121.5z"/>
	</g>
</g>
</svg>
