<?xml version="1.0" encoding="utf-8"?>
<!-- Generator: Adobe Illustrator 23.0.4, SVG Export Plug-In . SVG Version: 6.00 Build 0)  -->
<svg version="1.1" xmlns="http://www.w3.org/2000/svg" xmlns:xlink="http://www.w3.org/1999/xlink" x="0px" y="0px"
	 viewBox="0 0 432 288" style="enable-background:new 0 0 432 288;" xml:space="preserve">
<style type="text/css">
	.st0{fill:#E6E6E6;}
	.st1{fill:#CCCCCC;}
	.st2{fill:#B3B3B3;}
	.st3{fill:#999999;}
</style>
<g id="Layer_2">
	<g>
		<rect y="0" class="st0" width="432" height="288"/>
	</g>
</g>
<g id="Layer_3">
	<rect y="78" class="st1" width="432" height="4.4"/>
	<rect y="86.8" class="st1" width="432" height="4.4"/>
	<rect y="95.6" class="st1" width="432" height="4.4"/>
	<rect y="104.4" class="st1" width="432" height="4.4"/>
	<rect y="113.3" class="st1" width="432" height="4.4"/>
	<rect y="122.1" class="st1" width="432" height="4.4"/>
	<rect y="130.9" class="st1" width="432" height="4.4"/>
	<rect y="139.7" class="st1" width="432" height="4.4"/>
	<rect y="148.5" class="st1" width="432" height="4.4"/>
	<rect y="157.3" class="st1" width="432" height="4.4"/>
	<rect y="166.1" class="st1" width="432" height="4.4"/>
	<rect y="175" class="st1" width="432" height="4.4"/>
	<rect y="183.8" class="st1" width="432" height="4.4"/>
	<rect y="192.6" class="st1" width="432" height="4.4"/>
</g>
<g id="Layer_1">
	<g>
		<path class="st2" d="M143.3,270.7l6-25.3c0.1-0.4,0.4-0.6,0.8-0.6l1.8,0c0.5,0,0.8,0.3,0.6,0.8l-6.1,25.4
			c-0.1,0.4-0.4,0.6-0.8,0.6h-1.8C143.4,271.5,143.2,271.2,143.3,270.7z"/>
		<path class="st2" d="M155.1,270.7l6-25.3c0.1-0.4,0.4-0.6,0.8-0.6l1.8,0c0.5,0,0.8,0.3,0.6,0.8l-6.1,25.4
			c-0.1,0.4-0.4,0.6-0.8,0.6h-1.8C155.3,271.5,155,271.2,155.1,270.7z"/>
		<path class="st2" d="M181.8,263.7h4c0.4,0,0.7,0.3,0.7,0.7v1.3c0,0.4-0.3,0.7-0.7,0.7h-11.4c-0.5,0-0.7-0.3-0.7-0.7v-1.3
			c0-0.4,0.3-0.7,0.7-0.7h4c0.1,0,0.2-0.1,0.2-0.2v-15.2c0-0.1-0.1-0.2-0.2-0.2h-3.5c-0.5,0-0.7-0.3-0.7-0.7v-1.3
			c0-0.4,0.3-0.7,0.7-0.7h6.1c0.4,0,0.7,0.3,0.7,0.7v17.3C181.6,263.6,181.7,263.7,181.8,263.7z"/>
		<path class="st2" d="M189.7,258.6c0-4.7,2.8-8,7.1-8c4.3,0,7.2,3.3,7.2,8c0,4.8-2.8,8.1-7.2,8.1
			C192.5,266.7,189.7,263.4,189.7,258.6z M200.6,258.6c0-3.1-1.5-5.2-3.8-5.2c-2.3,0-3.7,2.1-3.7,5.2c0,3.1,1.5,5.3,3.7,5.3
			C199.1,263.9,200.6,261.8,200.6,258.6z"/>
		<path class="st2" d="M221.2,264.3l0.2,1.2c0.1,0.4-0.1,0.7-0.4,0.9c-0.5,0.2-1.1,0.4-2,0.4c-1.2,0-2.2-0.8-2.8-2
			c-0.1-0.1-0.1-0.1-0.2-0.1c-1.5,1.4-3,2-4.6,2c-2.7,0-4.5-1.8-4.5-4.4c0-3.3,2.5-4.8,8.9-5.8c0.1,0,0.2-0.1,0.2-0.2v-0.7
			c0-1.4-0.9-2.3-2.4-2.3c-1.2,0-2.2,0.5-3,1.7c-0.3,0.4-0.6,0.5-1,0.3l-1.5-0.9c-0.4-0.3-0.5-0.6-0.3-1c1.3-2,3.5-2.8,5.7-2.8
			c3.7,0,5.6,1.9,5.6,5.1v6.7c0,0.9,0.1,1.6,0.6,1.6c0.3,0,0.4,0,0.7-0.1C220.8,263.6,221.1,263.8,221.2,264.3z M215.9,261.9
			c0-0.1,0.1-0.1,0.1-0.2v-2.6c0-0.1-0.1-0.2-0.2-0.2c-3.7,0.7-5.5,1.4-5.5,3.3c0,1.2,0.7,1.9,1.7,1.9
			C213.3,264.1,215,263.1,215.9,261.9z"/>
		<path class="st2" d="M234,245.5h1.7c0.4,0,0.7,0.3,0.7,0.7v19.5c0,0.4-0.3,0.7-0.7,0.7h-1c-0.4,0-0.7-0.2-0.8-0.6l-0.3-1.2
			c0-0.2-0.1-0.2-0.2,0c-0.9,1.4-2.1,2.2-3.9,2.2c-3.3,0-6-2.7-6-8.1c0-5.3,2.9-8,6.1-8c1.5,0,2.7,0.6,3.5,1.8
			c0.1,0.1,0.2,0.1,0.2-0.1v-6.1C233.2,245.7,233.5,245.5,234,245.5z M233.2,260.9c0-0.1,0-0.2,0-0.2v-4.1c0-0.1,0-0.1,0-0.2
			c-0.8-2-2.1-2.9-3.3-2.9c-1.9,0-3,2.1-3,5.2c0,3.4,1.2,5.3,3,5.3C230.9,263.9,232.3,263.5,233.2,260.9z"/>
		<path class="st2" d="M249.4,263.7h3.5c0.5,0,0.7,0.3,0.7,0.7v1.3c0,0.4-0.3,0.7-0.7,0.7H242c-0.4,0-0.7-0.3-0.7-0.7v-1.3
			c0-0.4,0.3-0.7,0.7-0.7h3.9c0.1,0,0.2-0.1,0.2-0.2v-9.7c0-0.1-0.1-0.2-0.2-0.2h-3.4c-0.5,0-0.7-0.3-0.7-0.7v-1.2
			c0-0.5,0.3-0.7,0.7-0.7h6c0.5,0,0.7,0.3,0.7,0.7v11.8C249.2,263.6,249.3,263.7,249.4,263.7z M245.2,246.2c0-1.3,1.1-2.4,2.4-2.4
			c1.3,0,2.4,1.1,2.4,2.4c0,1.3-1.1,2.4-2.4,2.4C246.3,248.6,245.2,247.4,245.2,246.2z"/>
		<path class="st2" d="M269.9,255.7v10c0,0.4-0.3,0.7-0.7,0.7h-1.7c-0.4,0-0.7-0.3-0.7-0.7v-9.6c0-1.7-0.9-2.7-2-2.7
			c-1.5,0-2.9,1.6-3.6,3.9c0,0.1,0,0.2,0,0.2v8.1c0,0.5-0.3,0.7-0.7,0.7h-1.7c-0.4,0-0.7-0.3-0.7-0.7v-14c0-0.5,0.3-0.7,0.7-0.7h1
			c0.4,0,0.7,0.2,0.8,0.6l0.4,1.6c0,0.2,0.2,0.1,0.3,0c1-1.7,2.6-2.6,4.2-2.6C267.9,250.6,269.9,252.2,269.9,255.7z"/>
		<path class="st2" d="M287.8,268.2c0,3.4-3,5.1-7.2,5.1c-4.5,0-6.9-1.7-6.9-4.4c0-1.7,1.1-2.9,2.6-3.7c0.1-0.1,0.1-0.2,0-0.2
			c-0.9-0.5-1.5-1.3-1.5-2.3c0-1.1,0.7-2,1.7-2.6c0.1-0.1,0.1-0.2,0-0.2c-1.2-0.9-2-2.3-2-3.9c0-2.9,2.5-5.2,6.2-5.2
			c1.1,0,2.1,0.2,2.9,0.6c0.1,0,0.2,0.1,0.3,0l2.5-2.4c0.3-0.3,0.7-0.3,1,0.1l1.1,1.3c0.3,0.4,0.3,0.8-0.2,1l-2.4,1.5
			c-0.1,0.1-0.1,0.1-0.1,0.2c0.7,0.8,1.1,1.8,1.1,3c0,3-2.5,5.2-6.2,5.2c-0.8,0-1.6-0.1-2.2-0.3c-0.1,0-0.1,0-0.2,0.1
			c-0.5,0.3-0.7,0.8-0.7,1.2c0,0.7,0.7,1,2.2,1.2l2.7,0.3C285.3,263.8,287.8,265.1,287.8,268.2z M284.8,268.2c0-0.9-0.6-2.1-3.3-2.3
			c-0.9-0.1-1.7-0.2-2.5-0.3c-0.1,0-0.1,0-0.2,0c-1.3,0.8-2,1.8-2,2.8c0,1.3,1.1,2.3,3.8,2.3S284.8,269.9,284.8,268.2z M277.7,255.8
			c0,1.5,1.2,2.7,3,2.7c1.8,0,3-1.2,3-2.7s-1.2-2.7-3-2.7C278.9,253.1,277.7,254.3,277.7,255.8z"/>
	</g>
	<g>
		<path class="st2" d="M104.4,63.3H77c-2.6,0-4.8-2.1-4.8-4.8V47.8c0-2.6,2.1-4.8,4.8-4.8h27.4c2.6,0,4.8,2.1,4.8,4.8v10.7
			C109.2,61.2,107.1,63.3,104.4,63.3z"/>
		<path class="st2" d="M195.1,63.3h-32.5c-3,0-5.3-2.4-5.3-5.3v-9.6c0-3,2.4-5.3,5.3-5.3h32.5c3,0,5.3,2.4,5.3,5.3V58
			C200.5,60.9,198.1,63.3,195.1,63.3z"/>
		<g>
			<path class="st2" d="M147.4,63.3h-28.3c-2.5,0-4.6-2.1-4.6-4.6V47.6c0-2.5,2.1-4.6,4.6-4.6h28.3c2.5,0,4.6,2.1,4.6,4.6v11.1
				C152,61.3,150,63.3,147.4,63.3z"/>
			<path class="st2" d="M139.5,59.3H127c-2.1,0-3.7-1.7-3.7-3.7V42.7c0-2.1,1.7-3.7,3.7-3.7h12.5c2.1,0,3.7,1.7,3.7,3.7v12.8
				C143.3,57.6,141.6,59.3,139.5,59.3z"/>
		</g>
		<path class="st1" d="M362.2,224H69.8c-2.4,0-4.4-2-4.4-4.4V56.9c0-2.4,2-4.4,4.4-4.4h131.5c1.2,0,2.3-0.5,3.1-1.3l6.8-6.9
			c0.8-0.8,1.9-1.3,3.1-1.3h147.9c2.4,0,4.4,2,4.4,4.4v172.2C366.6,222,364.6,224,362.2,224z"/>
		<circle class="st2" cx="245" cy="137.6" r="77"/>
		<circle class="st3" cx="245" cy="137.6" r="60.8"/>
		<circle class="st1" cx="245" cy="137.6" r="24.3"/>
		<g>
			<rect x="316.6" y="55.2" class="st0" width="40.5" height="12.2"/>
		</g>
		<path class="st2" d="M137.8,213.2H65.4V63.3h72.4c3.3,0,6,2.7,6,6v138C143.8,210.5,141.1,213.2,137.8,213.2z"/>
		<g>
			<circle class="st0" cx="182.9" cy="71.4" r="6.8"/>
		</g>
		<path class="st0" d="M248.7,123.2c-2.3,0-4.7,0.5-7.2,1.5c-3.9,1.7-7.1,4.8-9,8.6c-1.3,2.6-1.9,5.3-1.9,7.9c0,0.7-0.9,0.8-1.2,0.2
			c-0.8-2.2-1.1-4.6-0.7-7.1c0.9-6.7,6.3-12.2,13-13c2.5-0.3,4.9,0,7.1,0.7C249.5,122.3,249.3,123.2,248.7,123.2z"/>
	</g>
</g>
</svg>
