<?xml version="1.0" encoding="utf-8"?>
<!-- Generator: Adobe Illustrator 23.0.1, SVG Export Plug-In . SVG Version: 6.00 Build 0)  -->
<svg version="1.1" id="Layer_1" xmlns="http://www.w3.org/2000/svg" xmlns:xlink="http://www.w3.org/1999/xlink" x="0px" y="0px"
	 viewBox="0 0 432 432" style="enable-background:new 0 0 432 432;" xml:space="preserve">
<path d="M49,162.3c0-61.2,51.4-146.1,106.6-146.1c29.8,0,55.8,23.1,55.2,61.9c-0.7,43.2-22.7,69-48.5,114.8
	c-10,17.7,53.8-3.7,52.6,30.2c-2.2,59.3-125.4,221.9-165.9,188.3c-37.4-31.1,65.6-176.1,200.3-223.9
	c52.7-18.7,109.1-32.8,109.1-32.8l-13.1,27.1c0,0-59.7,2.7-125.5,34.2C116.8,265.1,42.2,383.4,59.4,396.4
	c18.8,14.2,134.2-118.6,135-168.3c0.3-21-65.9-8.4-55.5-28.1c25.6-48.5,40.2-87.7,40.2-119s-8.9-51.4-22.7-52.2
	C128.5,27.3,93.5,86,93.5,167.5s22.4,143.8,103.9,143.6c69.3-0.1,82.3-48.1,85.2-71.3c8.4-67.3-33.5-97.2-29-139.7
	c6-57.1,52.4-54.9,94.6-54.9c38.8,0,42.5-17.1,42.5-17.1s4.5,55.2-38.7,55.2c-33.8,0-76.4-13.8-78.3,20.1
	c-2.3,40.1,48.1,70.4,44.7,136.4c-2.9,56.5-51.7,86.5-122.2,86.5S49,272.3,49,162.3z"/>
</svg>
